{"title":"Harry.Potter.and.the.Half-Blood.Prince.2009.DVDRIP.H264-ZEKTORM","uid":5129436,"size":740083885,"categoryP":"video","categoryS":"movies","magnet":"?xt=urn:btih:491f540a2b66e91e259a50f17fbd4924803d22b5&amp;dn=Harry.Potter.and.the.Half-Blood.Prince.2009.DVDRIP.H264-ZEKTORM&amp;tr=udp%3A%2F%2Ftracker.openbittorrent.com%3A80&amp;tr=udp%3A%2F%2Fopen.demonii.com%3A1337&amp;tr=udp%3A%2F%2Ftracker.coppersurfer.tk%3A6969&amp;tr=udp%3A%2F%2Fexodus.desync.com%3A6969","seeders":0,"leechers":0,"uploader":"blowley","files":5,"time":1255982816,"description":"Title                            : Harry Potter and the Half-Blood Prince\nYear                             : 2009\nGenre                            : Action | Adventure | Family | Fantasy | Mystery | Romance\niMDB URL                         : http://www.imdb.com/title/tt0417741/\nAwards                           : 1 win\n\nComplete name                    : Harry.Potter.and.the.Half-Blood.Prince.2009.DVDRIP.H264-ZEKTORM.mp4\nFormat                           : MPEG-4\nFormat profile                   : Base Media\nCodec ID                         : isom\nFile size                        : 701 MiB\nDuration                         : 2h 33mn\nOverall bit rate                 : 639 Kbps\nSubtitles                        : English (Format: srt/VobSub)\n\nVideo\nFormat                           : AVC\nFormat/Info                      : Advanced Video Codec\nFormat profile                   : &lt;a class=&quot;__cf_email__&quot; href=&quot;/cdn-cgi/l/email-protection&quot; data-cfemail=&quot;f3bb9a949bb3bfc7ddc2&quot;&gt;[email&amp;#160;protected]&lt;/a&gt;&lt;script cf-hash='f9e31' type=&quot;text/javascript&quot;&gt;\n/* &lt;![CDATA[ */!function(){try{var t=&quot;currentScript&quot;in document?document.currentScript:function(){for(var t=document.getElementsByTagName(&quot;script&quot;),e=t.length;e--;)if(t[e].getAttribute(&quot;cf-hash&quot;))return t[e]}();if(t&amp;&amp;t.previousSibling){var e,r,n,i,c=t.previousSibling,a=c.getAttribute(&quot;data-cfemail&quot;);if(a){for(e=&quot;&quot;,r=parseInt(a.substr(0,2),16),n=2;a.length-n;n+=2)i=parseInt(a.substr(n,2),16)^r,e+=String.fromCharCode(i);e=document.createTextNode(e),c.parentNode.replaceChild(e,c)}}}catch(u){}}();/* ]]&gt; */&lt;/script&gt;\nFormat settings, CABAC           : Yes\nCodec ID                         : avc1\nCodec ID/Info                    : Advanced Video Coding\nDuration                         : 2h 33mn\nBit rate mode                    : Variable\nBit rate                         : 557 Kbps\nMaximum bit rate                 : 4545 Kbps\nWidth                            : 720 pixels\nHeight                           : 368 pixels\nDisplay aspect ratio             : 2.35\nFrame rate mode                  : Constant\nFrame rate                       : 23.976 fps\nResolution                       : 24 bits\nColorimetry                      : 4:2:0\nScan type                        : Progressive\nBits/(Pixel*Frame)               : 0.088\nStream size                      : 612 MiB (87%)\nTitle                            : Video\nWriting library                  : x264\n\nAudio\nFormat                           : AAC\nFormat/Info                      : Advanced Audio Codec\nFormat version                   : Version 4\nFormat profile                   : LC\nFormat settings, SBR             : Yes\nFormat settings, PS              : No\nCodec ID                         : 40\nDuration                         : 2h 33mn\nBit rate mode                    : Variable\nBit rate                         : 78.8 Kbps\nMaximum bit rate                 : 106 Kbps\nChannel(s)                       : 2 channels\nChannel positions                : L R\nSampling rate                    : 48.0 KHz\nResolution                       : 16 bits\nStream size                      : 86.5 MiB (12%)\nTitle                            : English\nLanguage                         : English","torrent":{"xt":"urn:btih:491f540a2b66e91e259a50f17fbd4924803d22b5","amp;dn":"Harry.Potter.and.the.Half-Blood.Prince.2009.DVDRIP.H264-ZEKTORM","amp;tr":["udp%3A%2F%2Ftracker.openbittorrent.com%3A80","udp%3A%2F%2Fopen.demonii.com%3A1337","udp%3A%2F%2Ftracker.coppersurfer.tk%3A6969","udp%3A%2F%2Fexodus.desync.com%3A6969"],"infoHash":"491f540a2b66e91e259a50f17fbd4924803d22b5","infoHashBuffer":{"type":"Buffer","data":[73,31,84,10,43,102,233,30,37,154,80,241,127,189,73,36,128,61,34,181]},"announce":[],"urlList":[]}}